<svg width="18" height="18" viewBox="0 0 18 18" fill="none" xmlns="http://www.w3.org/2000/svg">
<path fill-rule="evenodd" clip-rule="evenodd" d="M1.92898 0.293015C1.53845 -0.097509 0.905289 -0.097509 0.514765 0.293015C0.124241 0.68354 0.124241 1.3167 0.514765 1.70723L7.58586 8.77832L0.514672 15.8495C0.124148 16.24 0.124148 16.8732 0.514672 17.2637C0.905196 17.6542 1.53836 17.6542 1.92889 17.2637L9.00007 10.1925L16.0711 17.2636C16.4616 17.6541 17.0948 17.6541 17.4853 17.2636C17.8759 16.8731 17.8759 16.2399 17.4853 15.8494L10.4143 8.77832L17.4852 1.70737C17.8758 1.31685 17.8758 0.683681 17.4852 0.293156C17.0947 -0.0973679 16.4615 -0.0973676 16.071 0.293156L9.00007 7.36411L1.92898 0.293015Z" fill="#292930"/>
</svg>
