<svg width="16" height="18" viewBox="0 0 16 18" fill="none" xmlns="http://www.w3.org/2000/svg">
<g clip-path="url(#clip0)">
<path d="M15 5.99999H0.999994C0.86658 5.99197 0.732983 6.01235 0.608023 6.05976C0.483063 6.10718 0.369583 6.18057 0.275075 6.27507C0.180567 6.36958 0.107182 6.48306 0.0597638 6.60802C0.0123458 6.73298 -0.00802585 6.86658 -6.20866e-06 6.99999V17C-0.00802585 17.1334 0.0123458 17.267 0.0597638 17.392C0.107182 17.5169 0.180567 17.6304 0.275075 17.7249C0.369583 17.8194 0.483063 17.8928 0.608023 17.9402C0.732983 17.9876 0.86658 18.008 0.999994 18H15C15.1334 18.008 15.267 17.9876 15.392 17.9402C15.5169 17.8928 15.6304 17.8194 15.7249 17.7249C15.8194 17.6304 15.8928 17.5169 15.9402 17.392C15.9876 17.267 16.008 17.1334 16 17V6.99999C16.008 6.86658 15.9876 6.73298 15.9402 6.60802C15.8928 6.48306 15.8194 6.36958 15.7249 6.27507C15.6304 6.18057 15.5169 6.10718 15.392 6.05976C15.267 6.01235 15.1334 5.99197 15 5.99999ZM5.99999 15V8.99999L11 12L5.99999 15Z" fill="#5956E9"/>
<path d="M3 2H13C13.2652 2 13.5196 2.10536 13.7071 2.29289C13.8946 2.48043 14 2.73478 14 3V4H2V3C2 2.73478 2.10536 2.48043 2.29289 2.29289C2.48043 2.10536 2.73478 2 3 2V2Z" fill="#FAB8C4"/>
</g>
<defs>
<clipPath id="clip0">
<rect width="16" height="16" fill="white" transform="translate(0 2)"/>
</clipPath>
</defs>
</svg>
