<svg width="25" height="24" viewBox="0 0 25 24" fill="none" xmlns="http://www.w3.org/2000/svg">
<g id="Stockholm-icons / Communication / Sending mail">
<path id="Combined Shape" opacity="0.3" fill-rule="evenodd" clip-rule="evenodd" d="M3.36133 6C2.80904 6 2.36133 6.44772 2.36133 7C2.36133 7.55228 2.80904 8 3.36133 8H5.36133C5.91361 8 6.36133 7.55228 6.36133 7C6.36133 6.44772 5.91361 6 5.36133 6H3.36133ZM0.361328 12C0.361328 11.4477 0.809043 11 1.36133 11H5.36133C5.91361 11 6.36133 11.4477 6.36133 12C6.36133 12.5523 5.91361 13 5.36133 13H1.36133C0.809043 13 0.361328 12.5523 0.361328 12ZM3.36133 17C3.36133 16.4477 3.80904 16 4.36133 16H5.36133C5.91361 16 6.36133 16.4477 6.36133 17C6.36133 17.5523 5.91361 18 5.36133 18H4.36133C3.80904 18 3.36133 17.5523 3.36133 17Z" fill="black"/>
<path id="Combined Shape_2" fill-rule="evenodd" clip-rule="evenodd" d="M10.3613 6C9.25676 6 8.36133 6.89543 8.36133 8V16C8.36133 17.1046 9.25676 18 10.3613 18H22.3613C23.4659 18 24.3613 17.1046 24.3613 16V8C24.3613 6.89543 23.4659 6 22.3613 6H10.3613ZM22.287 8.31565C22.1245 8.02389 21.7481 7.91473 21.4463 8.07183L16.3613 10.7186L11.2764 8.07183C10.9746 7.91473 10.5982 8.02389 10.4356 8.31565C10.2731 8.6074 10.386 8.97127 10.6879 9.12837L16.0671 11.9283C16.2508 12.0239 16.4719 12.0239 16.6556 11.9283L22.0348 9.12837C22.3366 8.97127 22.4495 8.6074 22.287 8.31565Z" fill="#292930"/>
</g>
</svg>
