<svg width="145" height="40" viewBox="0 0 145 40" fill="none" xmlns="http://www.w3.org/2000/svg">
<path d="M51.98 19.2002C51.98 17.2776 52.4093 15.5602 53.268 14.0482C54.1453 12.5176 55.3307 11.3322 56.824 10.4922C58.336 9.63358 60.0253 9.20424 61.892 9.20424C64.076 9.20424 65.9893 9.76424 67.632 10.8842C69.2747 12.0042 70.4227 13.5536 71.076 15.5322H66.568C66.12 14.5989 65.4853 13.8989 64.664 13.4322C63.8613 12.9656 62.928 12.7322 61.864 12.7322C60.7253 12.7322 59.708 13.0029 58.812 13.5442C57.9347 14.0669 57.244 14.8136 56.74 15.7842C56.2547 16.7549 56.012 17.8936 56.012 19.2002C56.012 20.4882 56.2547 21.6269 56.74 22.6162C57.244 23.5869 57.9347 24.3429 58.812 24.8842C59.708 25.4069 60.7253 25.6682 61.864 25.6682C62.928 25.6682 63.8613 25.4349 64.664 24.9682C65.4853 24.4829 66.12 23.7736 66.568 22.8402H71.076C70.4227 24.8376 69.2747 26.3962 67.632 27.5162C66.008 28.6176 64.0947 29.1682 61.892 29.1682C60.0253 29.1682 58.336 28.7482 56.824 27.9082C55.3307 27.0496 54.1453 25.8642 53.268 24.3522C52.4093 22.8402 51.98 21.1229 51.98 19.2002ZM80.4722 29.2522C78.9789 29.2522 77.6349 28.9256 76.4402 28.2722C75.2455 27.6002 74.3029 26.6576 73.6122 25.4442C72.9402 24.2309 72.6042 22.8309 72.6042 21.2442C72.6042 19.6576 72.9495 18.2576 73.6402 17.0442C74.3495 15.8309 75.3109 14.8976 76.5242 14.2442C77.7375 13.5722 79.0909 13.2362 80.5842 13.2362C82.0775 13.2362 83.4309 13.5722 84.6442 14.2442C85.8575 14.8976 86.8095 15.8309 87.5002 17.0442C88.2095 18.2576 88.5642 19.6576 88.5642 21.2442C88.5642 22.8309 88.2002 24.2309 87.4722 25.4442C86.7629 26.6576 85.7922 27.6002 84.5602 28.2722C83.3469 28.9256 81.9842 29.2522 80.4722 29.2522ZM80.4722 25.8362C81.1815 25.8362 81.8442 25.6682 82.4602 25.3322C83.0949 24.9776 83.5989 24.4549 83.9722 23.7642C84.3455 23.0736 84.5322 22.2336 84.5322 21.2442C84.5322 19.7696 84.1402 18.6402 83.3562 17.8562C82.5909 17.0536 81.6482 16.6522 80.5282 16.6522C79.4082 16.6522 78.4655 17.0536 77.7002 17.8562C76.9535 18.6402 76.5802 19.7696 76.5802 21.2442C76.5802 22.7189 76.9442 23.8576 77.6722 24.6602C78.4189 25.4442 79.3522 25.8362 80.4722 25.8362ZM94.5197 8.28024V29.0002H90.5997V8.28024H94.5197ZM101.473 8.28024V29.0002H97.5526V8.28024H101.473ZM103.498 21.1882C103.498 19.6202 103.806 18.2296 104.422 17.0162C105.056 15.8029 105.906 14.8696 106.97 14.2162C108.052 13.5629 109.256 13.2362 110.582 13.2362C111.739 13.2362 112.747 13.4696 113.606 13.9362C114.483 14.4029 115.183 14.9909 115.706 15.7002V13.4882H119.654V29.0002H115.706V26.7322C115.202 27.4602 114.502 28.0669 113.606 28.5522C112.728 29.0189 111.711 29.2522 110.554 29.2522C109.247 29.2522 108.052 28.9162 106.97 28.2442C105.906 27.5722 105.056 26.6296 104.422 25.4162C103.806 24.1842 103.498 22.7749 103.498 21.1882ZM115.706 21.2442C115.706 20.2922 115.519 19.4802 115.146 18.8082C114.772 18.1176 114.268 17.5949 113.634 17.2402C112.999 16.8669 112.318 16.6802 111.59 16.6802C110.862 16.6802 110.19 16.8576 109.574 17.2122C108.958 17.5669 108.454 18.0896 108.062 18.7802C107.688 19.4522 107.502 20.2549 107.502 21.1882C107.502 22.1216 107.688 22.9429 108.062 23.6522C108.454 24.3429 108.958 24.8749 109.574 25.2482C110.208 25.6216 110.88 25.8082 111.59 25.8082C112.318 25.8082 112.999 25.6309 113.634 25.2762C114.268 24.9029 114.772 24.3802 115.146 23.7082C115.519 23.0176 115.706 22.1962 115.706 21.2442ZM126.562 15.7562C127.066 15.0096 127.757 14.4029 128.634 13.9362C129.53 13.4696 130.547 13.2362 131.686 13.2362C133.011 13.2362 134.206 13.5629 135.27 14.2162C136.353 14.8696 137.202 15.8029 137.818 17.0162C138.453 18.2109 138.77 19.6016 138.77 21.1882C138.77 22.7749 138.453 24.1842 137.818 25.4162C137.202 26.6296 136.353 27.5722 135.27 28.2442C134.206 28.9162 133.011 29.2522 131.686 29.2522C130.529 29.2522 129.511 29.0282 128.634 28.5802C127.775 28.1136 127.085 27.5162 126.562 26.7882V29.0002H122.642V8.28024H126.562V15.7562ZM134.766 21.1882C134.766 20.2549 134.57 19.4522 134.178 18.7802C133.805 18.0896 133.301 17.5669 132.666 17.2122C132.05 16.8576 131.378 16.6802 130.65 16.6802C129.941 16.6802 129.269 16.8669 128.634 17.2402C128.018 17.5949 127.514 18.1176 127.122 18.8082C126.749 19.4989 126.562 20.3109 126.562 21.2442C126.562 22.1776 126.749 22.9896 127.122 23.6802C127.514 24.3709 128.018 24.9029 128.634 25.2762C129.269 25.6309 129.941 25.8082 130.65 25.8082C131.378 25.8082 132.05 25.6216 132.666 25.2482C133.301 24.8749 133.805 24.3429 134.178 23.6522C134.57 22.9616 134.766 22.1402 134.766 21.1882Z" fill="#292930"/>
<path d="M142.515 29.1962C141.805 29.1962 141.217 28.9816 140.751 28.5522C140.303 28.1042 140.079 27.5536 140.079 26.9002C140.079 26.2469 140.303 25.7056 140.751 25.2762C141.217 24.8282 141.805 24.6042 142.515 24.6042C143.205 24.6042 143.775 24.8282 144.223 25.2762C144.671 25.7056 144.895 26.2469 144.895 26.9002C144.895 27.5536 144.671 28.1042 144.223 28.5522C143.775 28.9816 143.205 29.1962 142.515 29.1962Z" fill="#5956E9"/>
<rect y="0.000244141" width="40" height="40" rx="11.4286" fill="white"/>
<circle cx="12.8572" cy="12.8574" r="5.71429" fill="#5956E9"/>
<circle cx="12.8572" cy="27.1431" r="5.71429" fill="#FFDEE4"/>
<circle cx="27.1429" cy="12.8574" r="5.71429" fill="#FAB8C4"/>
<circle cx="27.1429" cy="27.1431" r="5.71429" fill="#5956E9"/>
</svg>
